<?xml version="1.0" encoding="UTF-8" standalone="no"?>
<!-- Created with Inkscape (http://www.inkscape.org/) -->

<svg
   width="115.07711mm"
   height="153.07793mm"
   viewBox="0 0 115.07711 153.07793"
   version="1.1"
   id="svg1"
   xml:space="preserve"
   xmlns:inkscape="http://www.inkscape.org/namespaces/inkscape"
   xmlns:sodipodi="http://sodipodi.sourceforge.net/DTD/sodipodi-0.dtd"
   xmlns="http://www.w3.org/2000/svg"
   xmlns:svg="http://www.w3.org/2000/svg"><sodipodi:namedview
     id="namedview1"
     pagecolor="#ffffff"
     bordercolor="#000000"
     borderopacity="0.25"
     inkscape:showpageshadow="2"
     inkscape:pageopacity="0.0"
     inkscape:pagecheckerboard="0"
     inkscape:deskcolor="#d1d1d1"
     inkscape:document-units="mm"
     inkscape:export-bgcolor="#77777700" /><defs
     id="defs1" /><g
     inkscape:label="Layer 1"
     inkscape:groupmode="layer"
     id="layer1"
     transform="translate(-45.945764,-40.398314)"><path
       style="fill:#ffffff;fill-opacity:1;stroke-width:0.264583"
       d="M 96.101548,184.086 C 73.88435,155.55604 68.17703,147.89215 60.41591,136.16667 51.80544,123.158 48.391578,115.57869 46.577728,105.4437 c -0.84028,-4.6951 -0.84295,-12.970497 -0.006,-17.622402 4.614702,-25.639668 25.049502,-44.526894 51.09437,-47.224885 3.817452,-0.395449 11.718562,-0.171373 15.103882,0.42835 19.26648,3.413125 34.38055,14.578423 42.61109,31.478322 2.67919,5.501224 4.12055,10.143794 5.17506,16.668743 0.62441,3.863615 0.6219,11.538862 -0.005,15.610412 -2.27024,14.74228 -9.19831,27.06791 -32.27193,57.41458 -6.80575,8.951 -23.469,30.35277 -24.34215,31.26432 -0.22052,0.23022 -2.2005,-2.13875 -7.835722,-9.37514 z m 43.541212,-62.6505 v -5.40847 h -0.19083 -1.29218 l -0.008,-12.63385 c -0.005,-6.948617 0.0545,-12.958357 0.13116,-13.354982 0.17019,-0.88058 1.29589,-2.05698 1.96832,-2.05698 0.43997,0 0.49308,-0.22802 0.49308,-2.116669 v -2.11666 h -1.28909 -1.2891 l -0.0242,-4.10725 c -0.027,-4.582194 -0.21073,-5.287584 -1.97688,-7.588794 -0.7676,-1.00015 -1.03457,-1.67659 -1.35749,-3.43958 -0.22108,-1.207027 -0.42824,-2.708246 -0.46034,-3.336044 -0.0771,-1.506697 -0.4811,-1.725732 -0.48556,-0.263226 -0.002,0.627052 -0.22705,2.223375 -0.5003,3.54738 -0.3908,1.89356 -0.69456,2.66635 -1.42343,3.62121 -1.62882,2.13387 -1.90925,3.2594 -1.90925,7.662854 v 3.90177 l -1.12448,7.9e-4 -1.12448,8e-4 v 2.11666 c 0,1.668769 0.0809,2.116669 0.38213,2.116669 0.21016,0 0.70423,0.27707 1.09793,0.61572 l 0.71582,0.61571 0.0265,13.407082 0.0265,13.40709 -1.74732,1.1e-4 -1.74732,10e-5 0.59351,-1.25677 c 1.91088,-4.04636 1.53,-10.12906 -0.92839,-14.826377 -1.86307,-3.55982 -4.69394,-6.44575 -9.09325,-9.27013 -4.52314,-2.903855 -8.06091,-5.597204 -10.85059,-8.260674 l -2.81727,-2.6898 0.002,-3.477804 0.002,-3.4778 1.32463,-0.0641 c 1.59311,-0.0771 2.7295,-0.52232 3.94157,-1.54425 1.06667,-0.89933 2.40292,-2.915352 2.40292,-3.625311 0,-0.406284 -0.23094,-0.296569 -1.2337,0.5861 -3.47297,3.057021 -8.62563,2.113101 -10.737562,-1.967021 -0.34283,-0.662332 -0.59142,-1.751336 -0.66437,-2.910417 -0.15403,-2.447481 0.54307,-4.350255 2.215102,-6.046237 1.37211,-1.391764 1.20297,-1.515917 -0.784362,-0.57576 -2.11328,0.999744 -3.48073,2.322026 -4.46056,4.313224 -0.77251,1.569892 -0.86923,2.00996 -0.85532,3.891497 0.012,1.619232 0.16141,2.452121 0.63125,3.518292 0.82457,1.871163 2.79538,3.633193 4.67487,4.179543 l 1.425162,0.41428 v 3.27344 3.273434 l -1.508752,1.62963 c -2.35384,2.54243 -6.17708,5.606519 -10.79438,8.650999 -5.98593,3.946935 -8.76234,6.724545 -10.820128,10.824842 -1.41315,2.81579 -1.81973,4.90861 -1.68832,8.6903 0.11049,3.17933 0.1924,3.51326 1.7038,6.94531 0.111,0.25207 -0.47464,0.33071 -2.46235,0.33065 l -2.60799,-8e-5 0.054,3.96883 0.054,3.96892 H 71.67608 69.2742 v 1.26266 1.26266 c 0,4.79063 23.930798,33.18316 23.930798,33.18316 l 0.24121,-17.51838 0.0433,-7.47447 0.92318,-1.88071 c 0.68386,-1.39317 1.42441,-2.3534 2.85669,-3.70417 1.80039,-1.69791 4.932862,-3.80783 5.653272,-3.80783 0.66873,0 4.33705,2.72072 5.85234,4.34058 0.87511,0.93549 1.93185,2.39539 2.34832,3.24422 l 0.75721,1.54332 0.0844,10.71563 0.0844,20.113 c 0,0 27.27912,-32.30904 27.59379,-44.33787 z"
       id="path1"
       inkscape:export-filename="path1.svg"
       inkscape:export-xdpi="96"
       inkscape:export-ydpi="96" /></g></svg>
