<?xml version="1.0" encoding="UTF-8" standalone="no"?>
<!-- Created with Inkscape (http://www.inkscape.org/) -->

<svg
   version="1.1"
   id="svg1"
   width="434.93808"
   height="578.56232"
   viewBox="0 0 434.93808 578.56232"
   xml:space="preserve"
   xmlns="http://www.w3.org/2000/svg"
   xmlns:svg="http://www.w3.org/2000/svg"><defs
     id="defs1" /><g
     id="g1"
     transform="translate(-293.43497,-113.15912)"><path
       style="fill:#07828a;fill-opacity:1"
       d="M 483,656.23073 C 399.02947,548.40096 377.4585,519.43508 348.12513,475.11832 315.58162,425.95169 302.67883,397.30546 295.82333,359 c -3.17586,-17.74526 -3.18594,-49.02234 -0.0215,-66.60443 17.44142,-96.90581 94.67531,-168.2906 193.1126,-178.48773 14.42816,-1.49461 44.29061,-0.64771 57.08553,1.61896 72.81818,12.9 129.9422,55.09955 161.04978,118.9732 10.12607,20.792 15.5737,38.33872 19.55927,63 2.35997,14.60266 2.35049,43.61145 -0.0193,59 -8.58047,55.71885 -34.76527,102.3039 -121.97266,217 -25.72252,33.83054 -88.70172,114.7191 -92.00182,118.16434 -0.83347,0.87012 -8.31684,-8.08345 -29.61529,-35.43361 z M 647.56518,419.44144 V 399 h -0.72124 -4.88384 l -0.031,-47.75 c -0.017,-26.2625 0.20601,-48.97649 0.49574,-50.47554 0.64322,-3.32817 4.89785,-7.77446 7.4393,-7.77446 1.66288,0 1.86364,-0.86179 1.86364,-8 v -8 h -4.87218 -4.87219 l -0.0914,-15.52344 c -0.10197,-17.31854 -0.79646,-19.98458 -7.47167,-28.68204 -2.90117,-3.7801 -3.91018,-6.33671 -5.13065,-13 -0.83559,-4.56199 -1.61854,-10.23589 -1.73988,-12.60867 -0.29122,-5.6946 -1.81832,-6.52245 -1.83518,-0.99487 -0.007,2.36996 -0.85813,8.40331 -1.8909,13.40744 -1.47703,7.15676 -2.62513,10.07752 -5.37988,13.68644 -6.15617,8.06503 -7.21608,12.319 -7.21608,28.96197 v 14.74683 l -4.25,0.003 -4.24999,0.003 v 8 c 0,6.30716 0.30561,8 1.44424,8 0.79433,0 2.66168,1.04721 4.14968,2.32713 l 2.70545,2.32713 0.10032,50.67247 0.10031,50.67246 -6.60404,4.1e-4 -6.60405,4e-4 2.24318,-4.75 c 7.22225,-15.29333 5.78268,-38.28306 -3.50887,-56.03672 -7.04151,-13.45442 -17.74086,-24.3619 -34.36818,-35.0367 -17.09533,-10.97528 -30.46644,-21.15486 -41.0101,-31.2215 l -10.64794,-10.1662 0.007,-13.14444 0.007,-13.14444 5.00647,-0.24228 c 6.02118,-0.29139 10.3162,-1.97411 14.89728,-5.83653 4.03148,-3.39902 9.0819,-11.01865 9.0819,-13.70196 0,-1.53556 -0.87285,-1.12089 -4.66283,2.21518 -13.12615,11.5541 -32.60079,7.98652 -40.58289,-7.43441 -1.29574,-2.5033 -2.23529,-6.61922 -2.51099,-11 -0.58215,-9.25032 2.05255,-16.44191 8.37202,-22.85192 5.18591,-5.26021 4.54666,-5.72945 -2.96451,-2.1761 -7.9872,3.77856 -13.15552,8.77616 -16.8588,16.30195 -2.91973,5.93345 -3.28529,7.5967 -3.2327,14.70802 0.0453,6.11993 0.61006,9.26786 2.38581,13.29748 3.11649,7.07213 10.56522,13.73177 17.66881,15.79671 l 5.38643,1.56578 v 12.37204 12.37204 l -5.70236,6.15923 c -8.89641,9.60919 -23.34645,21.18998 -40.79764,32.69674 -22.62401,14.91754 -33.11751,25.41562 -40.89501,40.91281 -5.34103,10.64236 -6.87773,18.55223 -6.38103,32.84522 0.41758,12.01635 0.72719,13.27846 6.43955,26.25 0.41954,0.9527 -1.79392,1.24992 -9.30652,1.24968 l -9.85699,-3.1e-4 0.2042,15.00031 L 396.63619,431 h -5.95421 -9.07797 v 4.77226 4.77226 c 0,18.10631 90.44711,125.41665 90.44711,125.41665 l 0.91167,-66.21117 0.16378,-28.25 3.48919,-7.10818 c 2.58468,-5.26551 5.3836,-8.89476 10.79694,-14 C 494.2173,443.9745 506.05656,436 508.77936,436 c 2.5275,0 16.392,10.28305 22.1191,16.40534 3.30749,3.53572 7.30147,9.05345 8.87552,12.26162 l 2.86191,5.83304 0.3189,40.5 0.31891,76.01764 c 0,0 103.10217,-122.1129 104.29148,-167.5762 z"
       id="path1" /></g></svg>
