<?xml version="1.0" encoding="UTF-8" standalone="no"?>
<!-- Created with Inkscape (http://www.inkscape.org/) -->

<svg
   version="1.1"
   id="svg1"
   width="434.93808"
   height="578.56232"
   viewBox="0 0 434.93808 578.56232"
   xml:space="preserve"
   sodipodi:docname="logo circle.svg"
   inkscape:version="1.3.2 (091e20e, 2023-11-25, custom)"
   xmlns:inkscape="http://www.inkscape.org/namespaces/inkscape"
   xmlns:sodipodi="http://sodipodi.sourceforge.net/DTD/sodipodi-0.dtd"
   xmlns="http://www.w3.org/2000/svg"
   xmlns:svg="http://www.w3.org/2000/svg"><sodipodi:namedview
     id="namedview1"
     pagecolor="#ffffff"
     bordercolor="#000000"
     borderopacity="0.25"
     inkscape:showpageshadow="2"
     inkscape:pageopacity="0.0"
     inkscape:pagecheckerboard="0"
     inkscape:deskcolor="#d1d1d1"
     inkscape:zoom="1.4881716"
     inkscape:cx="140.44079"
     inkscape:cy="270.46612"
     inkscape:window-width="1920"
     inkscape:window-height="1057"
     inkscape:window-x="-8"
     inkscape:window-y="-8"
     inkscape:window-maximized="1"
     inkscape:current-layer="g1" /><defs
     id="defs1" /><g
     id="g1"
     transform="translate(-293.43497,-113.15912)"><circle
       style="display:inline;fill:#07828a;stroke-width:0.959916"
       id="path2"
       cx="510.87344"
       cy="358.72269"
       r="216.19388" /><circle
       style="display:inline;fill:#0f172a;fill-opacity:1;stroke-width:0.553617"
       id="circle2"
       cx="512.19025"
       cy="333.36371"
       r="124.6865"
       inkscape:export-filename="path1darksmaller.png"
       inkscape:export-xdpi="227.35149"
       inkscape:export-ydpi="227.35149" /><circle
       style="display:inline;fill:#0f172a;fill-opacity:1;stroke-width:0.46933"
       id="circle3"
       cx="515.18756"
       cy="378.32401"
       r="105.70325" /><path
       style="display:inline;fill:#07828a;fill-opacity:1;stroke-width:0.595349"
       d="m 482.5212,482.95063 c -74.89781,-29.2713 -94.0804,-110.83882 -98.16181,-133.64394 -1.89075,-10.56462 -1.89675,-29.18541 -0.0129,-39.6529 10.38374,-57.69279 56.36487,-100.19167 114.96942,-106.2625 8.58979,-0.88982 26.36837,-0.38563 33.98582,0.96384 43.35224,7.68001 77.36098,32.80347 95.88084,70.83058 6.02855,12.37851 9.27179,22.82494 11.64461,37.507 1.40499,8.69369 1.39935,25.96404 -0.0115,35.12561 -5.10839,33.17216 12.65021,35.3456 -39.26862,103.62983 -15.31388,20.14098 -63.23462,40.33576 -91.69129,37.73175 z m 111.24739,-97.66019 v -12.16979 h -0.42939 -2.9076 l -0.0184,-28.42792 c -0.0105,-15.63535 0.12265,-29.15811 0.29515,-30.05057 0.38293,-1.98143 2.91592,-4.62851 4.42897,-4.62851 0.98999,0 1.10952,-0.51308 1.10952,-4.7628 v -4.76279 h -2.90066 -2.90066 l -0.0544,-9.24187 c -0.0608,-10.31058 -0.47418,-11.8978 -4.44825,-17.07582 -1.72721,-2.25049 -2.32793,-3.77257 -3.05454,-7.73953 -0.49746,-2.71599 -0.96359,-6.09394 -1.03583,-7.50656 -0.17338,-3.39028 -1.08254,-3.88315 -1.09256,-0.5923 -0.005,1.41095 -0.5109,5.0029 -1.12576,7.9821 -0.87935,4.26077 -1.56287,5.99964 -3.2029,8.14821 -3.66506,4.80151 -4.29609,7.3341 -4.29609,17.24248 v 8.77951 l -2.53023,9.3e-4 -2.53024,9.2e-4 v 4.7628 c 0,3.75495 0.18195,4.76278 0.85983,4.76278 0.4729,0 1.58464,0.62345 2.47052,1.38546 l 1.61068,1.38545 0.0598,30.16783 0.0598,30.16779 -3.93171,2.5e-4 -3.93171,2.3e-4 1.33547,-2.8279 c 4.29977,-9.10487 3.44272,-22.79179 -2.08899,-33.36142 -4.19217,-8.01007 -10.56201,-14.50383 -20.46107,-20.85908 -10.1777,-6.53411 -18.13817,-12.59452 -24.41533,-18.58769 l -6.33923,-6.05244 0.005,-7.82551 0.005,-7.82553 2.98058,-0.14425 c 3.5847,-0.17348 6.14175,-1.17529 8.86908,-3.47477 2.40015,-2.02361 5.40692,-6.55995 5.40692,-8.15746 0,-0.91418 -0.51966,-0.66732 -2.77602,1.31882 -7.81465,6.87872 -19.40884,4.75475 -24.16099,-4.42609 -0.77142,-1.49031 -1.33077,-3.94073 -1.49492,-6.54882 -0.34659,-5.50717 1.22199,-9.78869 4.98427,-13.60487 3.08744,-3.13166 2.70686,-3.41102 -1.7649,-1.29554 -4.75519,2.24956 -7.83214,5.22488 -10.03687,9.70535 -1.73826,3.53246 -1.9559,4.52268 -1.9246,8.75639 0.027,3.64351 0.3632,5.51762 1.42038,7.91666 1.85542,4.21038 6.29001,8.17519 10.51914,9.40456 l 3.20679,0.93218 v 7.36569 7.36567 l -3.39491,3.6669 c -5.29647,5.72082 -13.89928,12.61544 -24.28882,19.46598 -13.4692,8.88114 -19.71648,15.13116 -24.34682,24.35739 -3.17977,6.33592 -4.09464,11.04507 -3.79893,19.55439 0.24862,7.15392 0.43293,7.90532 3.83378,15.6279 0.24977,0.56719 -1.06801,0.74414 -5.54063,0.744 l -5.86835,-1.8e-4 0.12157,8.93042 0.12158,8.93064 h -3.54484 -5.40456 v 2.84114 2.84116 c 0,10.77959 53.84761,74.66669 53.84761,74.66669 l 0.54276,-39.41875 0.0975,-16.81862 2.0773,-4.23184 c 1.53878,-3.13482 3.20511,-5.29549 6.42794,-8.33489 4.05111,-3.82055 11.09961,-8.56816 12.72063,-8.56816 1.50474,0 9.75896,6.12201 13.16858,9.76691 1.96912,2.10498 4.34692,5.38996 5.28404,7.29994 l 1.70383,3.4727 0.18986,24.11163 0.18986,45.25704 c 0,0 61.38178,-72.69981 62.08984,-99.76635 z"
       id="path1"
       sodipodi:nodetypes="cscsssscscccccccssscccsssssssscccssscccccsssscccssscsssssssscccssssssccccccscccsssssccccc"
       inkscape:export-filename="path1darksmaller.png"
       inkscape:export-xdpi="227.35149"
       inkscape:export-ydpi="227.35149" /></g></svg>
